<svg id="Layer_1" data-name="Layer 1" xmlns="http://www.w3.org/2000/svg" viewBox="0 0 16 16"><title>icon_</title><path d="M8,16a7.71,7.71,0,0,1-5.66-2.34A7.7,7.7,0,0,1,0,8,7.7,7.7,0,0,1,2.34,2.35,7.71,7.71,0,0,1,8,0a7.71,7.71,0,0,1,5.66,2.34A7.7,7.7,0,0,1,16,8a7.7,7.7,0,0,1-2.34,5.65A7.71,7.71,0,0,1,8,16Zm0-1a6.73,6.73,0,0,0,4.94-2A6.71,6.71,0,0,0,15,8a6.73,6.73,0,0,0-2-4.94A6.72,6.72,0,0,0,8,1a6.73,6.73,0,0,0-4.94,2A6.73,6.73,0,0,0,1,8a6.71,6.71,0,0,0,2,4.93A6.73,6.73,0,0,0,8,15ZM3.3,8.44h.63A3.81,3.81,0,0,0,8,11.74a3.81,3.81,0,0,0,4.07-3.3h.64a5.32,5.32,0,0,1-1.49,3.35A4.43,4.43,0,0,1,8,13,4.42,4.42,0,0,1,4.79,11.8,5.33,5.33,0,0,1,3.3,8.44ZM5.45,6.72A1.26,1.26,0,0,1,4.19,5.46,1.27,1.27,0,0,1,5.45,4.19a1.24,1.24,0,0,1,.91.37,1.26,1.26,0,0,1,0,1.79A1.24,1.24,0,0,1,5.45,6.72Zm5.09,0a1.24,1.24,0,0,1-.9-.37,1.25,1.25,0,0,1,0-1.79,1.24,1.24,0,0,1,.9-.37,1.26,1.26,0,0,1,1.27,1.27,1.26,1.26,0,0,1-1.27,1.27Z"/></svg>